<svg width="497" height="497" viewBox="0 0 497 497" fill="none" xmlns="http://www.w3.org/2000/svg">
<g clip-path="url(#clip0_331_340)">
<rect width="496.468" height="496.468" fill="#C66F4F"/>
<path d="M224.217 195.714L255.96 250.854H130.17L99.0654 195.714H224.217Z" fill="#E8C5B9"/>
<path d="M382.133 141.281L350.727 195.714H287.812L319.218 141.281H382.133Z" fill="#9D4C2F"/>
<path d="M413.896 305.993H287.812L319.626 250.854H444.999L413.896 305.993Z" fill="#9D4C2F"/>
<path d="M318.779 360.425L287.322 414.858L256.001 360.451L287.433 305.974L318.779 360.425Z" fill="white"/>
<path d="M287.58 305.992H287.559L224.543 415.211H161.628L224.644 305.992H99.0654L130.17 250.854H255.838L287.58 305.992Z" fill="#9D4C2F"/>
<path d="M224.096 195.714H161.302L130.17 141.635L161.628 87.2026L224.096 195.714Z" fill="white"/>
<path d="M319.93 141.281L256.71 250.853H193.085L288.119 86.1421L319.93 141.281Z" fill="white"/>
<path d="M224.896 87.2026L256.012 141.254L224.52 195.837L161.98 87.2026H224.896Z" fill="#E8C5B9"/>
<path d="M161.981 415.21L130.17 360.072L161.373 305.992H224.997L161.981 415.21Z" fill="white"/>
<path d="M413.496 195.714L444.601 250.853H318.606L381.686 360.425H318.77L256.001 251.392L288.126 195.714H413.496Z" fill="#E8C5B9"/>
<path d="M287.812 86.1421H350.727L382.538 141.281H319.623L287.812 86.1421Z" fill="#E8C5B9"/>
<path d="M381.832 360.425H318.917L287.105 415.565H350.021L381.832 360.425Z" fill="#9D4C2F"/>
<path d="M99.0654 195.714L67.6077 250.2L99.4542 305.319L130.912 250.833L99.0654 195.714Z" fill="white"/>
</g>
<defs>
<clipPath id="clip0_331_340">
<rect width="496.468" height="496.468" rx="80" fill="white"/>
</clipPath>
</defs>
</svg>
