<svg width="16" height="16" viewBox="0 0 16 16" fill="none" xmlns="http://www.w3.org/2000/svg">
<g clip-path="url(#clip0_395_2)">
<rect width="16" height="16" fill="#C66F4F"/>
<path d="M7.22461 6.30737L8.24805 8.08472H4.19336L3.19141 6.30737H7.22461Z" fill="#E8C5B9"/>
<path d="M12.3125 4.55322L11.3008 6.30713H9.27344L10.2852 4.55322H12.3125Z" fill="#9D4C2F"/>
<path d="M13.3369 9.86182H9.27344L10.2988 8.08447H14.3389L13.3369 9.86182Z" fill="#9D4C2F"/>
<path d="M10.2734 11.6157L9.25977 13.3696L8.25 11.6157L9.2627 9.86084L10.2734 11.6157Z" fill="white"/>
<path d="M9.26758 9.86182L7.2373 13.3813H5.20996L7.24121 9.86084H3.19336L4.19531 8.08447H8.24512L9.26758 9.86182Z" fill="#9D4C2F"/>
<path d="M7.2207 6.30737H5.19727L4.19336 4.56421L5.20801 2.8103L7.2207 6.30737Z" fill="white"/>
<path d="M10.3086 4.55347L8.27051 8.08472H6.2207L9.2832 2.77612L10.3086 4.55347Z" fill="white"/>
<path d="M7.24707 2.8103L8.24902 4.55151L7.23438 6.31128L5.21875 2.8103H7.24707Z" fill="#E8C5B9"/>
<path d="M5.21875 13.381L4.19336 11.6046L5.19922 9.86145H7.25L5.21875 13.381Z" fill="white"/>
<path d="M13.3252 6.30737L14.3281 8.08472H10.2676L12.3008 11.616H10.2725L8.25 8.10132L9.28516 6.30737H13.3252Z" fill="#E8C5B9"/>
<path d="M9.27344 2.77612H11.3011L12.3263 4.55314H10.2986L9.27344 2.77612Z" fill="#E8C5B9"/>
<path d="M12.3047 11.6156H10.2771L9.25187 13.3926H11.2795L12.3047 11.6156Z" fill="#9D4C2F"/>
<path d="M3.19141 6.30737L2.1776 8.06334L3.20394 9.8397L4.21775 8.08373L3.19141 6.30737Z" fill="white"/>
</g>
<defs>
<clipPath id="clip0_395_2">
<rect width="16" height="16" rx="2.57821" fill="white"/>
</clipPath>
</defs>
</svg>
