<svg width="140" height="140" viewBox="0 0 140 140" fill="none" xmlns="http://www.w3.org/2000/svg">
<path d="M35.0001 11.6152L110.699 120.876" stroke="#F57A53" stroke-width="14" stroke-linecap="round"/>
<path d="M13.0001 41.3457L69.5723 68.0306" stroke="#F57A53" stroke-width="7" stroke-linecap="round"/>
<path d="M112.752 25.877L72 75.8944" stroke="#F57A53" stroke-width="16" stroke-linecap="round"/>
<path d="M83.1165 14.1501L65.8835 133.85" stroke="#F57A53" stroke-width="10" stroke-linecap="round"/>
<path d="M78.796 66.772L38.204 126.726" stroke="#F57A53" stroke-width="10" stroke-linecap="round"/>
<path d="M74 71.5005L25 101" stroke="#F57A53" stroke-width="10" stroke-linecap="round"/>
<path d="M71.0595 73.0654L10 69.9999" stroke="#F57A53" stroke-width="14" stroke-linecap="round"/>
<path d="M70.1191 53.4589L63.6928 9.99988" stroke="#F57A53" stroke-width="6" stroke-linecap="round"/>
<path d="M85.4928 130L78.1184 86.9999" stroke="#F57A53" stroke-width="6" stroke-linecap="round"/>
<path d="M132.938 56.4116L81 70.9525" stroke="#F57A53" stroke-width="10" stroke-linecap="round"/>
<path d="M132.945 84.5932L75.0001 75.8262" stroke="#F57A53" stroke-width="10" stroke-linecap="round"/>
<path d="M51 70.5C54.2 67.3 52.3333 62.1667 51 60L58 57.5L69 54.5L81.5 47.5L85 49L92 61L96 70.5L94.5 83V86L97.5 97.5H93L81.5 93.5L69 95.5L58 90L56 79.5L51 70.5Z" fill="#F57A53"/>
<circle cx="73" cy="70" r="27" fill="#F57A53"/>
</svg>
